<svg width="20" height="17" viewBox="0 0 20 17" fill="none" xmlns="http://www.w3.org/2000/svg">
<path d="M18.7193 3.09518H3.86367L3.64285 0.69365C3.60673 0.300922 3.26957 0 2.86567 0H1.2803C0.84935 0 0.5 0.34104 0.5 0.761735C0.5 1.18243 0.84935 1.52347 1.2803 1.52347H2.1523C2.62884 6.70624 1.39723 -6.6893 3.04975 11.2842C3.11344 11.9876 3.50281 12.751 4.17356 13.2697C2.96421 14.7774 4.06919 17 6.03639 17C7.66915 17 8.82075 15.4103 8.26083 13.9047H12.5315C11.9723 15.4084 13.1214 17 14.756 17C16.0604 17 17.1216 15.964 17.1216 14.6906C17.1216 13.4172 16.0604 12.3812 14.756 12.3812H6.04167C5.44894 12.3812 4.93242 12.0321 4.70948 11.5235L17.1797 10.808C17.5201 10.7885 17.8081 10.5554 17.8909 10.2324L19.4764 4.04166C19.5993 3.56162 19.2271 3.09518 18.7193 3.09518ZM6.03639 15.4765C5.59252 15.4765 5.23135 15.124 5.23135 14.6906C5.23135 14.2572 5.59252 13.9047 6.03639 13.9047C6.48031 13.9047 6.84147 14.2572 6.84147 14.6906C6.84147 15.124 6.48031 15.4765 6.03639 15.4765ZM14.7559 15.4765C14.312 15.4765 13.9508 15.124 13.9508 14.6906C13.9508 14.2572 14.312 13.9047 14.7559 13.9047C15.1998 13.9047 15.561 14.2572 15.561 14.6906C15.561 15.124 15.1998 15.4765 14.7559 15.4765ZM16.5159 9.32004L4.49943 10.0094L4.00376 4.61862H17.72L16.5159 9.32004Z" fill="#19063D"/>
</svg>
