<svg width="18" height="18" viewBox="0 0 18 18" fill="none" xmlns="http://www.w3.org/2000/svg">
<path d="M17.3453 16.0789L12.4907 11.3477C13.431 10.2157 13.9972 8.77728 13.9972 7.21064C13.9972 3.5796 10.9656 0.625122 7.2398 0.625122C3.51398 0.625122 0.482422 3.57957 0.482422 7.21061C0.482422 10.8416 3.51402 13.7961 7.23983 13.7961C8.84737 13.7961 10.3233 13.2443 11.4849 12.3279L16.3396 17.0591C16.4783 17.1942 16.6603 17.2622 16.8425 17.2622C17.0246 17.2622 17.2067 17.1942 17.3454 17.0591C17.6235 16.788 17.6235 16.3499 17.3453 16.0789ZM7.23983 12.4097C4.29786 12.4097 1.90504 10.0777 1.90504 7.21061C1.90504 4.34347 4.29786 2.01152 7.23983 2.01152C10.1818 2.01152 12.5746 4.34347 12.5746 7.21061C12.5746 10.0777 10.1818 12.4097 7.23983 12.4097Z" fill="#19063D"/>
</svg>
