<svg width="20" height="19" viewBox="0 0 20 19" fill="none" xmlns="http://www.w3.org/2000/svg">
<path d="M19.12 15.9434V10.4339C19.12 8.63171 19.12 7.73068 18.7643 6.93422C18.4085 6.13776 17.7387 5.53912 16.3991 4.34183L15.3858 3.43618C12.8226 1.14539 11.5411 0 10 0C8.45893 0 7.17736 1.14539 4.61423 3.43618L3.6009 4.34183C2.26126 5.53912 1.59145 6.13776 1.23573 6.93422C0.880005 7.73068 0.880005 8.63171 0.880005 10.4339V15.9434C0.880005 16.8929 0.880005 17.3676 1.03427 17.7421C1.23997 18.2414 1.63451 18.6381 2.1311 18.8449C2.50355 19 2.9757 19 3.92 19H4.25778C4.88602 19 5.20016 19 5.45788 18.9306C6.15726 18.7421 6.70355 18.1929 6.89094 17.4896C6.96 17.2305 6.96 16.9147 6.96 16.283V13.9057C6.96 12.2175 8.32101 10.8491 10 10.8491C11.679 10.8491 13.04 12.2175 13.04 13.9057V16.283C13.04 16.9147 13.04 17.2305 13.109 17.4896C13.2965 18.1929 13.8428 18.7421 14.5422 18.9306C14.7999 19 15.114 19 15.7423 19H16.08C17.0243 19 17.4964 19 17.8689 18.8449C18.3655 18.6381 18.7601 18.2414 18.9658 17.7421C19.12 17.3676 19.12 16.8929 19.12 15.9434Z" fill="white"/>
</svg>
