<svg width="53" height="67" viewBox="0 0 53 67" fill="none" xmlns="http://www.w3.org/2000/svg">
<path d="M52.4583 45.0404C52.4583 55.9049 43.6509 64.7122 32.7865 64.7122C21.922 64.7122 17.1218 54.0987 17.1218 43.2342C17.1218 32.3698 21.922 25.3685 32.7865 25.3685C43.6509 25.3685 52.4583 34.1759 52.4583 45.0404Z" fill="#19063D"/>
<g filter="url(#filter0_b)">
<path d="M0 10.078C0 4.85002 4.23814 0.611877 9.46616 0.611877H29.0092C34.2372 0.611877 38.4754 4.85002 38.4754 10.078V57.4088C38.4754 62.6368 34.2372 66.875 29.0092 66.875H9.46616C4.23815 66.875 0 62.6368 0 57.4088V10.078Z" fill="#EDEDED" fill-opacity="0.37"/>
</g>
<path d="M14.9627 15.5745C14.9627 17.9356 13.0487 19.8496 10.6877 19.8496C8.32663 19.8496 6.41263 17.9356 6.41263 15.5745C6.41263 13.2135 8.32663 11.2995 10.6877 11.2995C13.0487 11.2995 14.9627 13.2135 14.9627 15.5745Z" fill="white"/>
<path d="M29.9253 15.5746C29.9253 17.9357 28.0113 19.8497 25.6503 19.8497C23.2893 19.8497 21.3753 17.9357 21.3753 15.5746C21.3753 13.2136 23.2893 11.2996 25.6503 11.2996C28.0113 11.2996 29.9253 13.2136 29.9253 15.5746Z" fill="white"/>
<path d="M14.9627 32.6748C14.9627 35.0358 13.0487 36.9498 10.6876 36.9498C8.3266 36.9498 6.4126 35.0358 6.4126 32.6748C6.4126 30.3138 8.3266 28.3998 10.6876 28.3998C13.0487 28.3998 14.9627 30.3138 14.9627 32.6748Z" fill="white"/>
<path d="M29.9253 32.6748C29.9253 35.0358 28.0113 36.9498 25.6503 36.9498C23.2893 36.9498 21.3753 35.0358 21.3753 32.6748C21.3753 30.3138 23.2893 28.3998 25.6503 28.3998C28.0113 28.3998 29.9253 30.3138 29.9253 32.6748Z" fill="white"/>
<path d="M14.9627 49.7748C14.9627 52.1358 13.0487 54.0498 10.6876 54.0498C8.3266 54.0498 6.4126 52.1358 6.4126 49.7748C6.4126 47.4138 8.3266 45.4998 10.6876 45.4998C13.0487 45.4998 14.9627 47.4138 14.9627 49.7748Z" fill="white"/>
<path d="M29.9253 49.7748C29.9253 52.1358 28.0113 54.0498 25.6503 54.0498C23.2893 54.0498 21.3753 52.1358 21.3753 49.7748C21.3753 47.4138 23.2893 45.4998 25.6503 45.4998C28.0113 45.4998 29.9253 47.4138 29.9253 49.7748Z" fill="white"/>
<defs>
<filter id="filter0_b" x="-25" y="-24.3881" width="88.4754" height="116.263" filterUnits="userSpaceOnUse" color-interpolation-filters="sRGB">
<feFlood flood-opacity="0" result="BackgroundImageFix"/>
<feGaussianBlur in="BackgroundImage" stdDeviation="12.5"/>
<feComposite in2="SourceAlpha" operator="in" result="effect1_backgroundBlur"/>
<feBlend mode="normal" in="SourceGraphic" in2="effect1_backgroundBlur" result="shape"/>
</filter>
</defs>
</svg>
