<svg width="79" height="54" viewBox="0 0 79 54" fill="none" xmlns="http://www.w3.org/2000/svg">
<path d="M65.9496 5.24957C64.4706 3.77929 62.7146 2.61295 60.7818 1.8172C58.8491 1.02145 56.7775 0.611877 54.6854 0.611877C52.5933 0.611877 50.5217 1.02145 48.589 1.8172C46.6562 2.61295 44.9002 3.77929 43.4212 5.24957L40.3518 8.2995L37.2823 5.24957C34.2949 2.28109 30.243 0.613416 26.0181 0.613416C21.7932 0.613416 17.7414 2.28109 14.7539 5.24957C11.7665 8.21805 10.0881 12.2442 10.0881 16.4422C10.0881 20.6403 11.7665 24.6664 14.7539 27.6349L17.8233 30.6848L40.3518 53.0702L62.8802 30.6848L65.9496 27.6349C67.4293 26.1653 68.6031 24.4204 69.4039 22.5C70.2047 20.5795 70.6169 18.521 70.6169 16.4422C70.6169 14.3634 70.2047 12.305 69.4039 10.3845C68.6031 8.46404 67.4293 6.71917 65.9496 5.24957Z" fill="#19063D"/>
<g filter="url(#filter0_b)">
<path d="M32.7864 38.9469C32.2115 38.9463 31.6468 38.7945 31.149 38.5068C30.6512 38.2191 30.2379 37.8055 29.9504 37.3076L24.3603 27.2588L20.7866 32.6192C20.479 33.0627 20.0668 33.4235 19.5863 33.6694C19.1059 33.9153 18.5722 34.0389 18.0325 34.029H3.27864C2.40909 34.029 1.57516 33.6836 0.960292 33.0687C0.345428 32.4539 0 31.62 0 30.7504C0 29.8809 0.345428 29.047 0.960292 28.4321C1.57516 27.8173 2.40909 27.4719 3.27864 27.4719H16.2785L21.8686 19.0951C22.1809 18.6284 22.6078 18.2497 23.1085 17.9954C23.6092 17.741 24.1668 17.6195 24.7279 17.6426C25.2891 17.6656 25.8349 17.8324 26.313 18.1269C26.7912 18.4215 27.1856 18.8339 27.4586 19.3246L32.7864 29.1112L41.3601 14.3576C41.653 13.8499 42.0767 13.4301 42.5871 13.1418C43.0974 12.8535 43.6757 12.7073 44.2617 12.7183C44.8339 12.7218 45.3952 12.8749 45.8898 13.1625C46.3845 13.4501 46.7952 13.8621 47.0813 14.3576L54.9337 27.4719L58.2123 24.8818C58.7935 24.4308 59.5094 24.1883 60.2451 24.1933H75.4088C76.2784 24.1933 77.1123 24.5387 77.7271 25.1536C78.342 25.7684 78.6874 26.6023 78.6874 27.4719C78.6874 28.3414 78.342 29.1753 77.7271 29.7902C77.1123 30.405 76.2784 30.7504 75.4088 30.7504H61.3926L56.0648 34.9634C55.6977 35.2654 55.2693 35.4839 54.8094 35.6039C54.3494 35.7239 53.8689 35.7424 53.4011 35.6582C52.9333 35.574 52.4894 35.389 52.1001 35.1162C51.7109 34.8434 51.3856 34.4892 51.1468 34.0782L44.2617 22.4557L35.6225 37.3076C35.335 37.8055 34.9216 38.2191 34.4238 38.5068C33.9261 38.7945 33.3614 38.9463 32.7864 38.9469Z" fill="white" fill-opacity="0.2"/>
</g>
<defs>
<filter id="filter0_b" x="-25" y="-12.2823" width="128.687" height="76.2291" filterUnits="userSpaceOnUse" color-interpolation-filters="sRGB">
<feFlood flood-opacity="0" result="BackgroundImageFix"/>
<feGaussianBlur in="BackgroundImage" stdDeviation="12.5"/>
<feComposite in2="SourceAlpha" operator="in" result="effect1_backgroundBlur"/>
<feBlend mode="normal" in="SourceGraphic" in2="effect1_backgroundBlur" result="shape"/>
</filter>
</defs>
</svg>
