<svg width="25" height="24" viewBox="0 0 25 24" fill="none" xmlns="http://www.w3.org/2000/svg">
<path d="M12.72 22C11.208 22.0043 9.71521 21.6622 8.35599 21C7.85853 20.758 7.38191 20.4754 6.93099 20.155L6.79399 20.055C5.55381 19.1396 4.53986 17.9522 3.82999 16.584C3.09572 15.1679 2.71489 13.5952 2.71994 12C2.71994 6.47715 7.19714 2 12.72 2C18.2428 2 22.72 6.47715 22.72 12C22.725 13.5944 22.3446 15.1664 21.611 16.582C20.9021 17.9494 19.8896 19.1364 18.651 20.052C18.1837 20.394 17.6879 20.6951 17.169 20.952L17.089 20.992C15.7289 21.6577 14.2342 22.0026 12.72 22ZM12.72 17C11.2215 16.9971 9.84765 17.834 9.16299 19.167C11.4044 20.2772 14.0356 20.2772 16.277 19.167V19.162C15.5915 17.8305 14.2176 16.9954 12.72 17ZM12.72 15C14.8861 15.0028 16.8834 16.1701 17.949 18.056L17.964 18.043L17.978 18.031L17.961 18.046L17.951 18.054C20.48 15.8691 21.3843 12.3423 20.2186 9.21011C19.053 6.07788 16.0631 4.00032 12.721 4.00032C9.37889 4.00032 6.38898 6.07788 5.22334 9.21011C4.0577 12.3423 4.96199 15.8691 7.49099 18.054C8.55725 16.169 10.5543 15.0026 12.72 15ZM12.72 14C10.5108 14 8.71999 12.2091 8.71999 10C8.71999 7.79086 10.5108 6 12.72 6C14.9291 6 16.72 7.79086 16.72 10C16.72 11.0609 16.2986 12.0783 15.5484 12.8284C14.7983 13.5786 13.7809 14 12.72 14ZM12.72 8C11.6154 8 10.72 8.89543 10.72 10C10.72 11.1046 11.6154 12 12.72 12C13.8246 12 14.72 11.1046 14.72 10C14.72 8.89543 13.8246 8 12.72 8Z" fill="#19063D"/>
</svg>
